<svg xmlns="http://www.w3.org/2000/svg" width="1000" height="1000" viewBox="0 0 1000 1000"><path fill="#050505" d="M837.863 432h-269.863v-269.893c0-37.318-30.657-67.55-67.975-67.55-37.351 0-68.025 30.232-68.025 67.55v269.893h-269.849c-37.351 0-67.591 30.658-67.591 67.975 0 37.351 30.24 68.025 67.591 68.025h269.849v269.853c0 37.317 30.675 67.591 68.025 67.591 37.317 0 67.975-30.273 67.975-67.591v-269.853h269.863c37.352 0 67.574-30.674 67.574-68.025.001-37.317-30.222-67.975-67.574-67.975z"/></svg>