<svg xmlns="http://www.w3.org/2000/svg" width="1000" height="1000" viewBox="0 0 1000 1000"><path fill="#A8A8A8" d="M497.833 30.737c-257.412 0-466.095 208.683-466.095 466.067 0 257.439 208.683 466.065 466.095 466.065 45.771 0 90.034-6.714 131.792-19.059-.684-1.08-1.023-1.99-1.594-3.073 20.368-7.451 35.162-26.625 35.162-49.609 0-29.413-23.84-53.253-53.254-53.253-4.778 0-9.045 1.536-13.427 2.674-.112-.112-.112-.228-.228-.396l-4.663 1.421c-1.025.342-2.05.457-3.018.911-29.526 9.444-60.249 6.314-91.994 6.314-193.066 0-347.73-160.153-347.73-353.19 0-193.038 154.664-349.55 347.73-349.55 193.036 0 351.369 156.512 351.369 349.55 0 58.428 6.145 112.761-25.032 138.591-25.318 13.313-93.874 15.133-91.824-47.563 2.047-62.697 1.592-229.791 1.592-274.907 0-36.412-25.146-74.815-45.174-74.815-16.953 0-40.506 31.975-47.562 61.104-36.07-32.713-91.996-66.394-143.369-66.394-143.257 0-265.804 113.444-265.804 263.983 0 166.922 109.803 271.264 262.163 269.443 56.808-.681 117.313-27.593 155.771-67.646 23.384 40.908 64.973 56.269 95.466 54.902 40.11-1.821 9.616 2.618 62.015 0 36.411-1.821 65.142-10.298 97.854-43.694 54.163-55.299 59.795-128.861 59.795-211.811.001-257.382-208.625-466.065-466.036-466.065zm9.7 612.339c-93.19.34-154.749-56.098-154.749-145.646 0-80.447 65.227-148.093 145.646-145.646 60.421 1.82 121.979 65.199 121.979 145.646 0 80.446-48.813 145.418-112.876 145.646z"/></svg>