<?xml version="1.0" encoding="utf-8"?>
<!-- Generator: Adobe Illustrator 16.0.0, SVG Export Plug-In . SVG Version: 6.00 Build 0)  -->
<!DOCTYPE svg PUBLIC "-//W3C//DTD SVG 1.1//EN" "http://www.w3.org/Graphics/SVG/1.1/DTD/svg11.dtd">
<svg version="1.1" id="Layer_1" xmlns="http://www.w3.org/2000/svg" xmlns:xlink="http://www.w3.org/1999/xlink" x="0px" y="0px"
	 width="1000px" height="1000px" viewBox="0 0 1000 1000" enable-background="new 0 0 1000 1000" xml:space="preserve">
<path fill-rule="evenodd" clip-rule="evenodd" fill="#050505" d="M500,922.215C266.825,922.215,77.784,733.229,77.784,500
	C77.784,266.825,266.825,77.784,500,77.784c233.229,0,422.215,189.041,422.215,422.216C922.215,733.229,733.229,922.215,500,922.215
	L500,922.215z M736.308,403.733c-22.513-22.526-59.046-22.526-81.587,0L499.684,558.84L344.592,403.733
	c-22.527-22.526-59.074-22.526-81.614,0c-22.527,22.541-22.527,59.088,0,81.615L457.64,680.011
	c11.559,11.545,26.897,16.988,42.044,16.658c15.146,0.33,30.431-5.113,41.976-16.658l194.648-194.662
	C758.849,462.821,758.849,426.274,736.308,403.733L736.308,403.733z"/>
</svg>
