<?xml version="1.0" encoding="utf-8"?>
<!-- Generator: Adobe Illustrator 16.0.0, SVG Export Plug-In . SVG Version: 6.00 Build 0)  -->
<!DOCTYPE svg PUBLIC "-//W3C//DTD SVG 1.1//EN" "http://www.w3.org/Graphics/SVG/1.1/DTD/svg11.dtd">
<svg version="1.1" id="Layer_1" xmlns="http://www.w3.org/2000/svg" xmlns:xlink="http://www.w3.org/1999/xlink" x="0px" y="0px"
	 width="1000px" height="1000px" viewBox="0 0 1000 1000" enable-background="new 0 0 1000 1000" xml:space="preserve">
<path fill-rule="evenodd" clip-rule="evenodd" fill="#050505" d="M499.999,910.875c-226.912,0-410.875-183.91-410.875-410.876
	c0-226.912,183.963-410.875,410.875-410.875c226.966,0,410.876,183.963,410.876,410.875
	C910.875,726.965,726.965,910.875,499.999,910.875L499.999,910.875z M675.176,459.525L485.741,270.078
	c-21.922-21.922-57.487-21.922-79.423,0c-21.922,21.936-21.922,57.5,0,79.436l150.86,150.86l-150.86,150.859
	c-21.922,21.909-21.922,57.487,0,79.423c21.936,21.936,57.501,21.936,79.423,0l189.435-189.448
	c11.234-11.234,16.531-26.095,16.21-40.834C691.707,485.621,686.41,470.761,675.176,459.525L675.176,459.525z"/>
</svg>
