<svg xmlns="http://www.w3.org/2000/svg" width="1000" height="1000" viewBox="0 0 1000 1000"><path fill-rule="evenodd" clip-rule="evenodd" fill="#050505" d="M500 922.215c-233.175 0-422.216-188.986-422.216-422.215 0-233.175 189.041-422.216 422.216-422.216 233.229 0 422.215 189.041 422.215 422.216 0 233.229-188.986 422.215-422.215 422.215zm236.308-518.482c-22.513-22.526-59.046-22.526-81.587 0l-155.037 155.107-155.092-155.107c-22.527-22.526-59.074-22.526-81.614 0-22.527 22.541-22.527 59.088 0 81.615l194.662 194.663c11.559 11.545 26.897 16.988 42.044 16.658 15.146.33 30.431-5.113 41.976-16.658l194.648-194.662c22.541-22.528 22.541-59.075 0-81.616z"/></svg>