<svg xmlns="http://www.w3.org/2000/svg" width="1000" height="1000" viewBox="0 0 1000 1000"><path fill-rule="evenodd" clip-rule="evenodd" fill="#050505" d="M500 910.875c-226.966 0-410.876-183.91-410.876-410.876 0-226.912 183.91-410.875 410.876-410.875 226.912 0 410.875 183.963 410.875 410.875 0 226.966-183.963 410.876-410.875 410.876zm-175.177-451.35c-11.234 11.235-16.531 26.096-16.21 40.849-.321 14.739 4.976 29.6 16.21 40.834l189.435 189.448c21.922 21.936 57.487 21.936 79.423 0 21.922-21.936 21.922-57.514 0-79.423l-150.861-150.859 150.86-150.86c21.922-21.936 21.922-57.5 0-79.436-21.936-21.922-57.501-21.922-79.423 0l-189.434 189.447z"/></svg>