<?xml version="1.0" encoding="utf-8"?>
<!-- Generator: Adobe Illustrator 16.0.0, SVG Export Plug-In . SVG Version: 6.00 Build 0)  -->
<!DOCTYPE svg PUBLIC "-//W3C//DTD SVG 1.1//EN" "http://www.w3.org/Graphics/SVG/1.1/DTD/svg11.dtd">
<svg version="1.1" id="Layer_1" xmlns="http://www.w3.org/2000/svg" xmlns:xlink="http://www.w3.org/1999/xlink" x="0px" y="0px"
	 width="1000px" height="1000px" viewBox="0 0 1000 1000" enable-background="new 0 0 1000 1000" xml:space="preserve">
<path fill-rule="evenodd" clip-rule="evenodd" fill="#050505" d="M910.875,500c0,226.912-183.91,410.875-410.876,410.875
	C273.087,910.875,89.124,726.912,89.124,500c0-226.966,183.963-410.876,410.875-410.876C726.965,89.124,910.875,273.034,910.875,500
	L910.875,500z M459.525,324.823L270.078,514.258c-21.922,21.922-21.922,57.487,0,79.423c21.936,21.922,57.5,21.922,79.436,0
	l150.86-150.86l150.859,150.86c21.909,21.922,57.487,21.922,79.423,0c21.936-21.936,21.936-57.501,0-79.423L541.208,324.823
	c-11.234-11.234-26.095-16.531-40.834-16.21C485.621,308.292,470.761,313.589,459.525,324.823L459.525,324.823z"/>
</svg>
