<svg xmlns="http://www.w3.org/2000/svg" width="1000" height="1000" viewBox="0 0 1000 1000"><path fill-rule="evenodd" clip-rule="evenodd" fill="#050505" d="M499.999 910.875c-226.912 0-410.875-183.91-410.875-410.876 0-226.912 183.963-410.875 410.875-410.875 226.966 0 410.876 183.963 410.876 410.875 0 226.966-183.91 410.876-410.876 410.876zm175.177-451.35l-189.435-189.447c-21.922-21.922-57.487-21.922-79.423 0-21.922 21.936-21.922 57.5 0 79.436l150.86 150.86-150.86 150.859c-21.922 21.909-21.922 57.487 0 79.423 21.936 21.936 57.501 21.936 79.423 0l189.435-189.448c11.234-11.234 16.531-26.095 16.21-40.834.321-14.753-4.976-29.613-16.21-40.849z"/></svg>