<svg xmlns="http://www.w3.org/2000/svg" width="1000" height="1000" viewBox="0 0 1000 1000"><path fill-rule="evenodd" clip-rule="evenodd" fill="#050505" d="M910.875 500c0 226.912-183.91 410.875-410.876 410.875-226.912 0-410.875-183.963-410.875-410.875 0-226.966 183.963-410.876 410.875-410.876 226.966 0 410.876 183.91 410.876 410.876zm-451.35-175.177l-189.447 189.435c-21.922 21.922-21.922 57.487 0 79.423 21.936 21.922 57.5 21.922 79.436 0l150.86-150.86 150.859 150.86c21.909 21.922 57.487 21.922 79.423 0 21.936-21.936 21.936-57.501 0-79.423l-189.448-189.435c-11.234-11.234-26.095-16.531-40.834-16.21-14.753-.321-29.613 4.976-40.849 16.21z"/></svg>