<?xml version="1.0" encoding="utf-8"?>
<!-- Generator: Adobe Illustrator 16.0.0, SVG Export Plug-In . SVG Version: 6.00 Build 0)  -->
<!DOCTYPE svg PUBLIC "-//W3C//DTD SVG 1.1//EN" "http://www.w3.org/Graphics/SVG/1.1/DTD/svg11.dtd">
<svg version="1.1" id="Layer_1" xmlns="http://www.w3.org/2000/svg" xmlns:xlink="http://www.w3.org/1999/xlink" x="0px" y="0px"
	 width="1000px" height="1000px" viewBox="0 0 1000 1000" enable-background="new 0 0 1000 1000" xml:space="preserve">
<path fill-rule="evenodd" clip-rule="evenodd" fill="#050505" d="M500,910.875c-226.966,0-410.876-183.91-410.876-410.876
	c0-226.912,183.91-410.875,410.876-410.875c226.912,0,410.875,183.963,410.875,410.875C910.875,726.965,726.912,910.875,500,910.875
	L500,910.875z M324.823,459.525c-11.234,11.235-16.531,26.096-16.21,40.849c-0.321,14.739,4.976,29.6,16.21,40.834l189.435,189.448
	c21.922,21.936,57.487,21.936,79.423,0c21.922-21.936,21.922-57.514,0-79.423L442.82,500.374l150.86-150.86
	c21.922-21.936,21.922-57.5,0-79.436c-21.936-21.922-57.501-21.922-79.423,0L324.823,459.525L324.823,459.525z"/>
</svg>
