<svg xmlns="http://www.w3.org/2000/svg" width="1000" height="1000" viewBox="0 0 1000 1000"><path fill-rule="evenodd" clip-rule="evenodd" fill="#050505" d="M833.67 716.898h-125.287c.186 40.414.445 102.223-.188 116.561-2.043 47.025-41.602 101.404-141.482.371-8.432-8.543-77.521-83.686-111.545-116.932h-289.84c-36.328 0-65.783-29.455-65.783-65.781v-475.767c0-36.254 29.455-65.764 65.783-65.764h668.342c36.328 0 65.783 29.51 65.783 65.764v475.768c0 36.325-29.455 65.78-65.783 65.78zm-11.254-531.39h-645.834v456.99h334.451l121.426 127.666v-127.666h189.957v-456.99z"/></svg>