<?xml version="1.0" encoding="utf-8"?>
<!-- Generator: Adobe Illustrator 16.0.0, SVG Export Plug-In . SVG Version: 6.00 Build 0)  -->
<!DOCTYPE svg PUBLIC "-//W3C//DTD SVG 1.1//EN" "http://www.w3.org/Graphics/SVG/1.1/DTD/svg11.dtd">
<svg version="1.1" id="Layer_1" xmlns="http://www.w3.org/2000/svg" xmlns:xlink="http://www.w3.org/1999/xlink" x="0px" y="0px"
	 width="1000px" height="1000px" viewBox="0 0 1000 1000" enable-background="new 0 0 1000 1000" xml:space="preserve">
<path fill-rule="evenodd" clip-rule="evenodd" fill="#050505" d="M780.395,917.541h-529.75
	c-55.363,0-100.254-44.891-100.254-100.254v-97.544h-20.811c-17.286,0-31.302-14.007-31.302-31.292
	c0-17.287,14.016-31.272,31.302-31.272h20.811v-125.19h-20.811c-17.286,0-31.302-14.006-31.302-31.292s14.016-31.292,31.302-31.292
	h20.811V344.24h-20.811c-17.286,0-31.302-14.011-31.302-31.298c0-17.281,14.016-31.292,31.302-31.292h20.811v-98.359
	c0-55.363,44.891-100.249,100.254-100.249h550.612c55.362,0,100.243,44.886,100.243,100.249v633.997
	C901.5,872.65,835.758,917.541,780.395,917.541L780.395,917.541z M839.008,195.759c0-27.671-22.432-50.127-50.098-50.127H263.235
	c-27.697,0-50.127,22.456-50.127,50.127v85.891h31.201c17.286,0,31.292,14.011,31.292,31.292c0,17.287-14.006,31.298-31.292,31.298
	h-31.201v125.164h31.201c17.286,0,31.292,14.006,31.292,31.292s-14.006,31.292-31.292,31.292h-31.201v125.19h31.201
	c17.286,0,31.292,13.985,31.292,31.272c0,17.285-14.006,31.292-31.292,31.292h-31.201v85.401c0,27.667,22.43,50.127,50.127,50.127
	H788.91c27.666,0,50.098-22.46,50.098-50.127V195.759L839.008,195.759z"/>
</svg>
