<svg xmlns="http://www.w3.org/2000/svg" width="1000" height="1000" viewBox="0 0 1000 1000"><path fill-rule="evenodd" clip-rule="evenodd" fill="#050505" d="M780.395 917.541h-529.75c-55.363 0-100.254-44.891-100.254-100.254v-97.544h-20.811c-17.286 0-31.302-14.007-31.302-31.292 0-17.287 14.016-31.272 31.302-31.272h20.811v-125.19h-20.811c-17.286 0-31.302-14.006-31.302-31.292s14.016-31.292 31.302-31.292h20.811v-125.165h-20.811c-17.286 0-31.302-14.011-31.302-31.298 0-17.281 14.016-31.292 31.302-31.292h20.811v-98.359c0-55.363 44.891-100.249 100.254-100.249h550.612c55.362 0 100.243 44.886 100.243 100.249v633.997c0 55.362-65.742 100.253-121.105 100.253zm58.613-721.782c0-27.671-22.432-50.127-50.098-50.127h-525.675c-27.697 0-50.127 22.456-50.127 50.127v85.891h31.201c17.286 0 31.292 14.011 31.292 31.292 0 17.287-14.006 31.298-31.292 31.298h-31.201v125.164h31.201c17.286 0 31.292 14.006 31.292 31.292s-14.006 31.292-31.292 31.292h-31.201v125.19h31.201c17.286 0 31.292 13.985 31.292 31.272 0 17.285-14.006 31.292-31.292 31.292h-31.201v85.401c0 27.667 22.43 50.127 50.127 50.127h525.675c27.666 0 50.098-22.46 50.098-50.127v-609.384z"/></svg>