<?xml version="1.0" encoding="utf-8"?>
<!-- Generator: Adobe Illustrator 16.0.0, SVG Export Plug-In . SVG Version: 6.00 Build 0)  -->
<!DOCTYPE svg PUBLIC "-//W3C//DTD SVG 1.1//EN" "http://www.w3.org/Graphics/SVG/1.1/DTD/svg11.dtd">
<svg version="1.1" id="Layer_1" xmlns="http://www.w3.org/2000/svg" xmlns:xlink="http://www.w3.org/1999/xlink" x="0px" y="0px"
	 width="1000px" height="1000px" viewBox="0 0 1000 1000" enable-background="new 0 0 1000 1000" xml:space="preserve">
<path fill-rule="evenodd" clip-rule="evenodd" fill="#050505" d="M105.514,258.521v-22.982c0-38.17,60.816-44.459,98.986-44.459
	h174.525v-33.721c0-38.104,30.91-69.08,69.08-69.08h104.908c38.104,0,69.08,30.977,69.08,69.08v33.721H798.76
	c38.102,0,94.705,6.289,94.705,44.459v22.982H105.514L105.514,258.521z M552.178,190.377h-0.369
	c-1.104-18.064-15.689-32.416-33.887-32.416h-36.096c-18.199,0-32.818,14.352-33.889,32.416h-0.367v1.84
	c0-0.701,0.367-1.236,0.367-1.84h103.871c0,0.604,0.369,1.139,0.369,1.84V190.377L552.178,190.377z M282.547,293.848h435.791
	c38.17,0,72.895,29.873,72.895,67.977v480.785c0,38.104-30.877,69.08-69.047,69.08H277.797c-38.104,0-69.047-30.977-69.047-69.08
	V361.824C208.75,323.721,244.377,293.848,282.547,293.848L282.547,293.848z M619.852,843.145h79.82
	c12.744,0,23.049-10.27,23.049-23.016V384.338c0-12.68-10.305-22.982-23.049-22.982h-79.82V843.145L619.852,843.145z
	 M448.641,843.145h102.701V361.355H448.641V843.145L448.641,843.145z M277.328,820.129c0,12.746,10.303,23.016,22.982,23.016h79.818
	V361.355h-79.818c-12.68,0-22.982,10.303-22.982,22.982V820.129L277.328,820.129z"/>
</svg>
