<svg xmlns="http://www.w3.org/2000/svg" width="1000" height="1000" viewBox="0 0 1000 1000"><path fill-rule="evenodd" clip-rule="evenodd" fill="#050505" d="M105.514 258.521v-22.982c0-38.17 60.816-44.459 98.986-44.459h174.525v-33.721c0-38.104 30.91-69.08 69.08-69.08h104.908c38.104 0 69.08 30.977 69.08 69.08v33.721h176.667c38.102 0 94.705 6.289 94.705 44.459v22.982h-787.951zm446.664-68.144h-.369c-1.104-18.064-15.689-32.416-33.887-32.416h-36.096c-18.199 0-32.818 14.352-33.889 32.416h-.367v1.84c0-.701.367-1.236.367-1.84h103.871c0 .604.369 1.139.369 1.84v-1.84h.001zm-269.631 103.471h435.791c38.17 0 72.895 29.873 72.895 67.977v480.785c0 38.104-30.877 69.08-69.047 69.08h-444.389c-38.104 0-69.047-30.977-69.047-69.08v-480.786c0-38.103 35.627-67.976 73.797-67.976zm337.305 549.297h79.82c12.744 0 23.049-10.27 23.049-23.016v-435.791c0-12.68-10.305-22.982-23.049-22.982h-79.82v481.789zm-171.211 0h102.701v-481.79h-102.701v481.79zm-171.313-23.016c0 12.746 10.303 23.016 22.982 23.016h79.818v-481.79h-79.818c-12.68 0-22.982 10.303-22.982 22.982v435.792z"/></svg>