<svg xmlns="http://www.w3.org/2000/svg" width="1000" height="1000" viewBox="0 0 1000 1000"><path fill-rule="evenodd" clip-rule="evenodd" fill="#050505" d="M499.813 920.937c-232.481 0-420.943-188.443-420.943-420.934 0-232.489 188.462-420.942 420.943-420.942 232.444 0 420.925 188.453 420.925 420.942-.001 232.49-188.481 420.934-420.925 420.934zm-1.574-770.173c-192.019 0-347.685 155.693-347.685 347.721 0 192.045 155.666 347.711 347.685 347.711 192.054 0 347.721-155.666 347.721-347.711 0-192.028-155.667-347.721-347.721-347.721zm243.937 448.974c-35.654 93.722-126.803 156.703-226.887 156.703h-30.954c-100.084 0-191.286-62.981-226.905-156.703-7.22-18.891 2.288-40.033 21.179-47.218 18.927-7.185 40.052 2.306 47.236 21.196 24.914 65.483 88.557 109.521 158.49 109.521h30.954c69.88 0 133.577-44.037 158.49-109.521 7.185-18.891 28.31-28.381 47.183-21.196 18.909 7.185 28.398 28.328 21.214 47.218zm-114.292-136.346c-30.312 0-54.903-24.583-54.903-54.912v-36.566c0-30.319 24.592-54.903 54.903-54.903 30.329 0 54.903 24.584 54.903 54.903v36.566c0 30.329-24.574 54.912-54.903 54.912zm-256.215 0c-30.312 0-54.903-24.583-54.903-54.912v-36.566c0-30.319 24.592-54.903 54.903-54.903 30.347 0 54.921 24.584 54.921 54.903v36.566c0 30.329-24.574 54.912-54.921 54.912z"/></svg>