<?xml version="1.0" encoding="utf-8"?>
<!-- Generator: Adobe Illustrator 16.0.0, SVG Export Plug-In . SVG Version: 6.00 Build 0)  -->
<!DOCTYPE svg PUBLIC "-//W3C//DTD SVG 1.1//EN" "http://www.w3.org/Graphics/SVG/1.1/DTD/svg11.dtd">
<svg version="1.1" id="Layer_1" xmlns="http://www.w3.org/2000/svg" xmlns:xlink="http://www.w3.org/1999/xlink" x="0px" y="0px"
	 width="1000px" height="1000px" viewBox="0 0 1000 1000" enable-background="new 0 0 1000 1000" xml:space="preserve">
<path fill-rule="evenodd" clip-rule="evenodd" fill="#050505" d="M499.813,920.937c-232.481,0-420.943-188.443-420.943-420.934
	c0-232.489,188.462-420.942,420.943-420.942c232.444,0,420.925,188.453,420.925,420.942
	C920.737,732.493,732.257,920.937,499.813,920.937L499.813,920.937z M498.239,150.764c-192.019,0-347.685,155.693-347.685,347.721
	c0,192.045,155.666,347.711,347.685,347.711c192.054,0,347.721-155.666,347.721-347.711
	C845.96,306.457,690.293,150.764,498.239,150.764L498.239,150.764z M742.176,599.738
	c-35.654,93.722-126.803,156.703-226.887,156.703h-30.954c-100.084,0-191.286-62.981-226.905-156.703
	c-7.22-18.891,2.288-40.033,21.179-47.218c18.927-7.185,40.052,2.306,47.236,21.196c24.914,65.483,88.557,109.521,158.49,109.521
	h30.954c69.88,0,133.577-44.037,158.49-109.521c7.185-18.891,28.31-28.381,47.183-21.196
	C739.871,559.705,749.36,580.848,742.176,599.738L742.176,599.738z M627.884,463.392c-30.312,0-54.903-24.583-54.903-54.912v-36.566
	c0-30.319,24.592-54.903,54.903-54.903c30.329,0,54.903,24.584,54.903,54.903v36.566
	C682.787,438.809,658.213,463.392,627.884,463.392L627.884,463.392z M371.669,463.392c-30.312,0-54.903-24.583-54.903-54.912
	v-36.566c0-30.319,24.592-54.903,54.903-54.903c30.347,0,54.921,24.584,54.921,54.903v36.566
	C426.59,438.809,402.016,463.392,371.669,463.392L371.669,463.392z"/>
</svg>
