<svg xmlns="http://www.w3.org/2000/svg" width="1000" height="1000" viewBox="0 0 1000 1000"><path fill-rule="evenodd" clip-rule="evenodd" fill="#050404" d="M918.333 888.411c-1.579 22.487-20.093 40.352-43.026 40.352-23.937 0-43.36-19.424-43.36-43.323 0-1.021.241-2.005.315-3.026v-11.477h-666.97v17.475h-.297c-.929 22.432-19.21 40.352-41.865 40.352-22.646 0-40.928-17.92-41.856-40.352h-.724l3.063-22.692c.028-142.987 103.61-277.098 222.744-344.042-45.366-47.761-73.378-112.151-73.378-183.199 0-3.203.361-6.323.482-9.499-.632-2.72-1.021-5.57-1.021-8.505 0-4.772.984-9.266 2.572-13.453 15.618-132.209 127.825-234.742 264.202-234.742 146.998 0 266.197 119.171 266.197 266.197 0 72.152-28.839 137.509-75.431 185.446 134.092 71.791 206.606 200.331 227.126 341.795.279 2.006 2.434 22.692 2.434 22.692h-1.207v.001zm-292.028-315.983c-2.396 1.301-4.995 2.247-7.428 3.491-19.146-11.253-48.802-37.474-21.151-82.44 51.216-32.627 85.272-89.766 85.272-155.001 0-101.512-82.282-183.794-183.784-183.794-101.521 0-183.832 82.282-183.832 183.794 0 67.687 36.703 126.654 91.178 158.566 10.641 18.486 13.306 46.602-33.444 75.515-1.374-.743-2.841-1.3-4.188-2.043-32.395 17.623-203.877 119.292-203.877 300.235h667.081c-2.897-182.633-167.889-274.126-205.827-298.323z"/></svg>