<?xml version="1.0" encoding="utf-8"?>
<!-- Generator: Adobe Illustrator 16.0.0, SVG Export Plug-In . SVG Version: 6.00 Build 0)  -->
<!DOCTYPE svg PUBLIC "-//W3C//DTD SVG 1.1//EN" "http://www.w3.org/Graphics/SVG/1.1/DTD/svg11.dtd">
<svg version="1.1" id="Layer_1" xmlns="http://www.w3.org/2000/svg" xmlns:xlink="http://www.w3.org/1999/xlink" x="0px" y="0px"
	 width="1000px" height="1000px" viewBox="0 0 1000 1000" enable-background="new 0 0 1000 1000" xml:space="preserve">
<path fill-rule="evenodd" clip-rule="evenodd" fill="#050404" d="M918.333,888.411c-1.579,22.487-20.093,40.352-43.026,40.352
	c-23.937,0-43.36-19.424-43.36-43.323c0-1.021,0.241-2.005,0.315-3.026v-11.477h-666.97v17.475h-0.297
	c-0.929,22.432-19.21,40.352-41.865,40.352c-22.646,0-40.928-17.92-41.856-40.352H80.55l3.063-22.692
	c0.028-142.987,103.61-277.098,222.744-344.042c-45.366-47.761-73.378-112.151-73.378-183.199c0-3.203,0.361-6.323,0.482-9.499
	c-0.632-2.72-1.021-5.57-1.021-8.505c0-4.772,0.984-9.266,2.572-13.453C250.63,174.813,362.837,72.28,499.214,72.28
	c146.998,0,266.197,119.171,266.197,266.197c0,72.152-28.839,137.509-75.431,185.446
	c134.092,71.791,206.606,200.331,227.126,341.795c0.279,2.006,2.434,22.692,2.434,22.692H918.333L918.333,888.411z M626.305,572.428
	c-2.396,1.301-4.995,2.247-7.428,3.491c-19.146-11.253-48.802-37.474-21.151-82.44c51.216-32.627,85.272-89.766,85.272-155.001
	c0-101.512-82.282-183.794-183.784-183.794c-101.521,0-183.832,82.282-183.832,183.794c0,67.687,36.703,126.654,91.178,158.566
	c10.641,18.486,13.306,46.602-33.444,75.515c-1.374-0.743-2.841-1.3-4.188-2.043c-32.395,17.623-203.877,119.292-203.877,300.235
	h667.081C829.235,688.118,664.243,596.625,626.305,572.428L626.305,572.428z"/>
</svg>
