<?xml version="1.0" encoding="utf-8"?>
<!-- Generator: Adobe Illustrator 16.0.0, SVG Export Plug-In . SVG Version: 6.00 Build 0)  -->
<!DOCTYPE svg PUBLIC "-//W3C//DTD SVG 1.1//EN" "http://www.w3.org/Graphics/SVG/1.1/DTD/svg11.dtd">
<svg version="1.1" id="Layer_1" xmlns="http://www.w3.org/2000/svg" xmlns:xlink="http://www.w3.org/1999/xlink" x="0px" y="0px"
	 width="1000px" height="1000px" viewBox="0 0 1000 1000" enable-background="new 0 0 1000 1000" xml:space="preserve">
<path fill-rule="evenodd" clip-rule="evenodd" fill="#050505" d="M892.419,573.078c-9.181,0-17.329-4.044-23.011-10.353
	c-2.669,0-5.196,0-7.896,0v-4.024L736.895,417.413c-6.156-5.758-14.325-8.609-22.494-8.609c-8.573,0-17.127,3.134-23.395,9.402
	L541.912,678.031c-17.439,17.46-40.693,27.064-65.494,27.064c-24.79,0-48.053-9.604-65.513-27.064l-76.766-80.264
	c-5.783-5.773-13.568-8.958-21.848-8.958c-8.29,0-16.044,3.185-21.828,8.958L147.688,781.75
	c9.099,11.496,23.011,18.987,38.823,18.987h467.784c0,0.03,0,0.081,0,0.101c17.157,0,31.068,13.912,31.068,31.039
	c0,17.156-13.911,31.058-31.068,31.058c-1.345,0-2.618-0.222-3.923-0.384H174.016c-54.949,0-99.504-44.555-99.504-99.504v-546.42
	c0-54.954,44.555-99.499,99.504-99.499h650.008c54.949,0,99.494,44.545,99.494,99.499v346.099c-2.588,0-5.43,0-8.098,0
	C909.728,569.034,901.578,573.078,892.419,573.078L892.419,573.078z M861.512,229.001c0-27.464-22.282-49.751-49.751-49.751H186.512
	c-27.49,0-49.752,22.288-49.752,49.751v464.256L246.798,545.7c18.067-18.057,41.765-27.065,65.493-27.065
	c23.729,0,47.447,9.009,65.514,27.065l76.766,80.254c6.046,6.046,13.932,9.038,21.848,9.038c7.896,0,15.813-2.992,21.828-9.038
	L647.33,366.155c18.269-18.294,42.664-27.484,67.09-27.484c23.295,0,46.598,8.381,64.604,25.209l82.488,99.711V229.001
	L861.512,229.001z M297.136,438.472c-59.953,0-108.704-48.751-108.704-108.693c0-59.943,48.75-108.694,108.704-108.694
	c59.933,0,108.704,48.751,108.704,108.694C405.84,389.721,357.069,438.472,297.136,438.472L297.136,438.472z M297.136,283.09
	c-25.75,0-46.688,20.943-46.688,46.688c0,25.745,20.938,46.683,46.688,46.683c25.74,0,46.678-20.938,46.678-46.683
	C343.814,304.033,322.876,283.09,297.136,283.09L297.136,283.09z M764.476,626.237c2.153-2.163,4.601-3.802,7.147-5.196
	c9.635-11.143,23.698-18.34,39.592-18.34c18.541,0,34.748,9.705,44.1,24.203l59.104,63.492c12.152,12.152,12.152,31.806,0,43.928
	c-12.111,12.143-31.775,12.143-43.918,0l-29.764-31.958v149.478c0,17.157-13.912,31.059-31.059,31.059
	c-17.156,0-31.059-13.901-31.059-31.059v-149.7l-29.977,32.181c-12.121,12.143-31.806,12.143-43.928,0
	c-12.111-12.122-12.111-31.775,0-43.928L764.476,626.237L764.476,626.237z"/>
</svg>
