<svg xmlns="http://www.w3.org/2000/svg" width="1000" height="1000" viewBox="0 0 1000 1000"><path fill-rule="evenodd" clip-rule="evenodd" fill="#050505" d="M892.419 573.078c-9.181 0-17.329-4.044-23.011-10.353h-7.896v-4.024l-124.617-141.288c-6.156-5.758-14.325-8.609-22.494-8.609-8.573 0-17.127 3.134-23.395 9.402l-149.094 259.825c-17.439 17.46-40.693 27.064-65.494 27.064-24.79 0-48.053-9.604-65.513-27.064l-76.766-80.264c-5.783-5.773-13.568-8.958-21.848-8.958-8.29 0-16.044 3.185-21.828 8.958l-142.775 183.983c9.099 11.496 23.011 18.987 38.823 18.987h467.784v.101c17.157 0 31.068 13.912 31.068 31.039 0 17.156-13.911 31.058-31.068 31.058-1.345 0-2.618-.222-3.923-.384h-476.356c-54.949 0-99.504-44.555-99.504-99.504v-546.42c0-54.954 44.555-99.499 99.504-99.499h650.008c54.949 0 99.494 44.545 99.494 99.499v346.099h-8.098c-5.692 6.308-13.842 10.352-23.001 10.352zm-30.907-344.077c0-27.464-22.282-49.751-49.751-49.751h-625.249c-27.49 0-49.752 22.288-49.752 49.751v464.256l110.038-147.557c18.067-18.057 41.765-27.065 65.493-27.065 23.729 0 47.447 9.009 65.514 27.065l76.766 80.254c6.046 6.046 13.932 9.038 21.848 9.038 7.896 0 15.813-2.992 21.828-9.038l149.083-259.799c18.269-18.294 42.664-27.484 67.09-27.484 23.295 0 46.598 8.381 64.604 25.209l82.488 99.711v-234.59zm-564.376 209.471c-59.953 0-108.704-48.751-108.704-108.693 0-59.943 48.75-108.694 108.704-108.694 59.933 0 108.704 48.751 108.704 108.694 0 59.942-48.771 108.693-108.704 108.693zm0-155.382c-25.75 0-46.688 20.943-46.688 46.688s20.938 46.683 46.688 46.683c25.74 0 46.678-20.938 46.678-46.683s-20.938-46.688-46.678-46.688zm467.34 343.147c2.153-2.163 4.601-3.802 7.147-5.196 9.635-11.143 23.698-18.34 39.592-18.34 18.541 0 34.748 9.705 44.1 24.203l59.104 63.492c12.152 12.152 12.152 31.806 0 43.928-12.111 12.143-31.775 12.143-43.918 0l-29.764-31.958v149.478c0 17.157-13.912 31.059-31.059 31.059-17.156 0-31.059-13.901-31.059-31.059v-149.7l-29.977 32.181c-12.121 12.143-31.806 12.143-43.928 0-12.111-12.122-12.111-31.775 0-43.928l59.762-64.16z"/></svg>