<?xml version="1.0" encoding="utf-8"?>
<!-- Generator: Adobe Illustrator 16.0.0, SVG Export Plug-In . SVG Version: 6.00 Build 0)  -->
<!DOCTYPE svg PUBLIC "-//W3C//DTD SVG 1.1//EN" "http://www.w3.org/Graphics/SVG/1.1/DTD/svg11.dtd">
<svg version="1.1" id="Layer_1" xmlns="http://www.w3.org/2000/svg" xmlns:xlink="http://www.w3.org/1999/xlink" x="0px" y="0px"
	 width="1000px" height="1000px" viewBox="0 0 1000 1000" enable-background="new 0 0 1000 1000" xml:space="preserve">
<path fill-rule="evenodd" clip-rule="evenodd" fill="#050505" d="M851.609,201.791c-46.938-51.688-110.869-80.181-180.015-80.181
	c-63.848,0-123.605,24.266-171.45,67.196c-8.619-8.001-17.704-15.44-27.092-22.179c-43.563-31.21-93.713-47.652-145.209-47.652
	c-68.541,0-134.53,30.126-181.029,82.623c-48.175,54.336-73.62,127.888-73.62,212.857c0,122.714,70.463,242.421,203.703,346.099
	c92.835,72.302,185.367,112.954,189.21,114.656c10.788,4.667,22.262,7,33.735,7c12.407,0,24.842-2.718,36.316-8.181
	c3.843-1.839,95.277-45.84,187.261-119.57c55.97-44.962,101.097-91.983,134.118-139.883
	c45.265-65.741,68.268-133.556,68.268-201.562C925.806,328.224,900.141,255.235,851.609,201.791z M499.843,797.94
	c0,0-342.323-149.271-342.323-383.484c0-239.333,253.332-287.424,341.829-81.236c84.436-197.994,342.132-160.114,342.132,79.796
	C841.48,634.808,499.843,797.94,499.843,797.94z"/>
</svg>
