<svg xmlns="http://www.w3.org/2000/svg" width="1000" height="1000" viewBox="0 0 1000 1000"><path fill-rule="evenodd" clip-rule="evenodd" fill="#050505" d="M851.609 201.791c-46.938-51.688-110.869-80.181-180.015-80.181-63.848 0-123.605 24.266-171.45 67.196-8.619-8.001-17.704-15.44-27.092-22.179-43.563-31.21-93.713-47.652-145.209-47.652-68.541 0-134.53 30.126-181.029 82.623-48.175 54.336-73.62 127.888-73.62 212.857 0 122.714 70.463 242.421 203.703 346.099 92.835 72.302 185.367 112.954 189.21 114.656 10.788 4.667 22.262 7 33.735 7 12.407 0 24.842-2.718 36.316-8.181 3.843-1.839 95.277-45.84 187.261-119.57 55.97-44.962 101.097-91.983 134.118-139.883 45.265-65.741 68.268-133.556 68.268-201.562.001-84.79-25.664-157.779-74.196-211.223zm-351.766 596.149s-342.323-149.271-342.323-383.484c0-239.333 253.332-287.424 341.829-81.236 84.436-197.994 342.132-160.114 342.132 79.796-.001 221.792-341.638 384.924-341.638 384.924z"/></svg>