<svg xmlns="http://www.w3.org/2000/svg" width="1000" height="1000" viewBox="0 0 1000 1000"><path fill="#050505" d="M824.499 595.446c-52.696 0-95.457-42.724-95.457-95.447 0-52.688 42.761-95.448 95.457-95.448 52.715 0 95.438 42.761 95.438 95.448.001 52.724-42.723 95.447-95.438 95.447zm-648.982 0c-52.696 0-95.457-42.724-95.457-95.447 0-52.688 42.761-95.448 95.457-95.448s95.457 42.761 95.457 95.448c0 52.724-42.761 95.447-95.457 95.447zm324.491 0c-52.696 0-95.457-42.724-95.457-95.447 0-52.688 42.761-95.448 95.457-95.448 52.733 0 95.438 42.761 95.438 95.448 0 52.724-42.705 95.447-95.438 95.447zm324.491 0c-52.696 0-95.457-42.724-95.457-95.447 0-52.688 42.761-95.448 95.457-95.448 52.715 0 95.438 42.761 95.438 95.448.001 52.724-42.723 95.447-95.438 95.447z"/></svg>