<?xml version="1.0" encoding="utf-8"?>
<!-- Generator: Adobe Illustrator 16.0.0, SVG Export Plug-In . SVG Version: 6.00 Build 0)  -->
<!DOCTYPE svg PUBLIC "-//W3C//DTD SVG 1.1//EN" "http://www.w3.org/Graphics/SVG/1.1/DTD/svg11.dtd">
<svg version="1.1" id="Layer_1" xmlns="http://www.w3.org/2000/svg" xmlns:xlink="http://www.w3.org/1999/xlink" x="0px" y="0px"
	 width="1000px" height="1000px" viewBox="0 0 1000 1000" enable-background="new 0 0 1000 1000" xml:space="preserve">
<path fill="#050505" d="M824.499,595.446c-52.696,0-95.457-42.724-95.457-95.447c0-52.688,42.761-95.448,95.457-95.448
	c52.715,0,95.438,42.761,95.438,95.448C919.938,552.723,877.214,595.446,824.499,595.446L824.499,595.446z M175.517,595.446
	c-52.696,0-95.457-42.724-95.457-95.447c0-52.688,42.761-95.448,95.457-95.448s95.457,42.761,95.457,95.448
	C270.974,552.723,228.213,595.446,175.517,595.446L175.517,595.446z M500.008,595.446c-52.696,0-95.457-42.724-95.457-95.447
	c0-52.688,42.761-95.448,95.457-95.448c52.733,0,95.438,42.761,95.438,95.448C595.446,552.723,552.741,595.446,500.008,595.446
	L500.008,595.446z M824.499,595.446c-52.696,0-95.457-42.724-95.457-95.447c0-52.688,42.761-95.448,95.457-95.448
	c52.715,0,95.438,42.761,95.438,95.448C919.938,552.723,877.214,595.446,824.499,595.446L824.499,595.446z"/>
</svg>
