<?xml version="1.0" encoding="utf-8"?>
<!-- Generator: Adobe Illustrator 16.0.0, SVG Export Plug-In . SVG Version: 6.00 Build 0)  -->
<!DOCTYPE svg PUBLIC "-//W3C//DTD SVG 1.1//EN" "http://www.w3.org/Graphics/SVG/1.1/DTD/svg11.dtd">
<svg version="1.1" id="Layer_1" xmlns="http://www.w3.org/2000/svg" xmlns:xlink="http://www.w3.org/1999/xlink" x="0px" y="0px"
	 width="1000px" height="1000px" viewBox="0 0 1000 1000" enable-background="new 0 0 1000 1000" xml:space="preserve">
<path fill-rule="evenodd" clip-rule="evenodd" fill="#050505" d="M875.131,558.396c-81.267,74.17-215.938,185.548-288.843,258.36
	c-29.958,29.988-55.751,16.783-55.751-31.531c0-40.51,0-90.738,0-145.008c-46.402-0.556-121.066,3.394-203.041,27.582
	c-87.931,25.916-122.64,104.684-156.27,138.405c-48.963,48.87-83.179,27.212-83.179-58.497c0-92.403,28.971-206.312,85.277-271.21
	c96.507-111.239,272.336-121.853,357.212-119.939c0-52.419,0-100.812,0-139.994c0-66.241,32.087-55.041,65.315-21.828
	c73.769,73.83,204.614,167.483,278.938,241.869C900.707,462.475,938.687,500.377,875.131,558.396L875.131,558.396z M593.939,295.484
	v124.553c-66.179,4.735-158.768,12.325-217.203,21.041c-231.796,34.57-228.063,292.098-228.063,292.098
	c0-0.031,78.211-157.194,302.664-154.048c60.286,0.864,107.337,1.173,142.602,1.173v128.563l244.847-210.616L593.939,295.484
	L593.939,295.484z"/>
</svg>
