<svg xmlns="http://www.w3.org/2000/svg" width="1000" height="1000" viewBox="0 0 1000 1000"><path fill-rule="evenodd" clip-rule="evenodd" fill="#050505" d="M875.131 558.396c-81.267 74.17-215.938 185.548-288.843 258.36-29.958 29.988-55.751 16.783-55.751-31.531v-145.008c-46.402-.556-121.066 3.394-203.041 27.582-87.931 25.916-122.64 104.684-156.27 138.405-48.963 48.87-83.179 27.212-83.179-58.497 0-92.403 28.971-206.312 85.277-271.21 96.507-111.239 272.336-121.853 357.212-119.939v-139.994c0-66.241 32.087-55.041 65.315-21.828 73.769 73.83 204.614 167.483 278.938 241.869 25.918 25.87 63.898 63.772.342 121.791zm-281.192-262.912v124.553c-66.179 4.735-158.768 12.325-217.203 21.041-231.796 34.57-228.063 292.098-228.063 292.098 0-.031 78.211-157.194 302.664-154.048 60.286.864 107.337 1.173 142.602 1.173v128.563l244.847-210.616-244.847-202.764z"/></svg>