<svg xmlns="http://www.w3.org/2000/svg" width="1000" height="1000" viewBox="0 0 1000 1000"><path fill-rule="evenodd" clip-rule="evenodd" fill="#050505" d="M937.156 299.063l-58.354 58.436-146.029 145.927-.162-.203c-.281.404-.402.768-.766 1.131-15.646 15.646-40.934 15.646-56.58 0-15.648-15.648-15.648-40.914 0-56.582.281-.262.766-.463 1.049-.746l-1.977-1.936 107.717-107.695h-635.896v496.279h701.066v-248.1h.768l-.283-1.291c0-22.02 17.865-40.006 40.006-40.006s40.006 17.986 40.006 40.006l-.283 1.291h3.51v257.334c0 39.482-32.021 71.422-71.381 71.422h-725.749c-39.441 0-71.381-31.939-71.381-71.422v-516.443c0-39.441 31.939-71.402 71.381-71.402h642.59l-102.07-102.029.201-.201c-14.719-15.648-14.559-40.188.727-55.473 15.404-15.365 39.844-15.547 55.572-.746l1.936-1.936 146.029 146.029v-.082l58.353 58.438z"/></svg>