<?xml version="1.0" encoding="utf-8"?>
<!-- Generator: Adobe Illustrator 16.0.0, SVG Export Plug-In . SVG Version: 6.00 Build 0)  -->
<!DOCTYPE svg PUBLIC "-//W3C//DTD SVG 1.1//EN" "http://www.w3.org/Graphics/SVG/1.1/DTD/svg11.dtd">
<svg version="1.1" id="Layer_1" xmlns="http://www.w3.org/2000/svg" xmlns:xlink="http://www.w3.org/1999/xlink" x="0px" y="0px"
	 width="1000px" height="1000px" viewBox="0 0 1000 1000" enable-background="new 0 0 1000 1000" xml:space="preserve">
<path fill-rule="evenodd" clip-rule="evenodd" fill="#050505" d="M937.156,299.063l-58.354,58.436L732.773,503.426l-0.162-0.203
	c-0.281,0.404-0.402,0.768-0.766,1.131c-15.646,15.646-40.934,15.646-56.58,0c-15.648-15.648-15.648-40.914,0-56.582
	c0.281-0.262,0.766-0.463,1.049-0.746l-1.977-1.936l107.717-107.695H146.158v496.279h701.066v-248.1h0.768
	c0-0.484-0.283-0.807-0.283-1.291c0-22.02,17.865-40.006,40.006-40.006s40.006,17.986,40.006,40.006
	c0,0.484-0.283,0.807-0.283,1.291h3.51v257.334c0,39.482-32.021,71.422-71.381,71.422H133.818
	c-39.441,0-71.381-31.939-71.381-71.422V326.465c0-39.441,31.939-71.402,71.381-71.402h642.59l-102.07-102.029l0.201-0.201
	c-14.719-15.648-14.559-40.188,0.727-55.473c15.404-15.365,39.844-15.547,55.572-0.746l1.936-1.936l146.029,146.029v-0.082
	L937.156,299.063L937.156,299.063z"/>
</svg>
