<?xml version="1.0" encoding="utf-8"?>
<!-- Generator: Adobe Illustrator 16.0.0, SVG Export Plug-In . SVG Version: 6.00 Build 0)  -->
<!DOCTYPE svg PUBLIC "-//W3C//DTD SVG 1.1//EN" "http://www.w3.org/Graphics/SVG/1.1/DTD/svg11.dtd">
<svg version="1.1" id="Layer_1" xmlns="http://www.w3.org/2000/svg" xmlns:xlink="http://www.w3.org/1999/xlink" x="0px" y="0px"
	 width="1000px" height="1000px" viewBox="0 0 1000 1000" enable-background="new 0 0 1000 1000" xml:space="preserve">
<path fill-rule="evenodd" clip-rule="evenodd" fill="#050505" d="M890.449,890.904c-34.211,34.109-89.529,34.109-123.672,0
	l-106.43-106.359c-57.904,35.867-126.018,56.939-199.199,56.939c-209.203,0-378.813-169.645-378.813-378.951
	c0-209.219,169.609-378.846,378.813-378.846c209.34,0,378.949,169.627,378.949,378.846c0,72.701-20.83,140.4-56.283,198.063
	l106.635,106.67C924.592,801.41,924.592,856.762,890.449,890.904L890.449,890.904z M461.148,246.9
	c-119.086,0-215.617,96.531-215.617,215.633c0,119.189,96.531,215.721,215.617,215.721c119.119,0,215.754-96.531,215.754-215.721
	C676.902,343.432,580.268,246.9,461.148,246.9L461.148,246.9z"/>
</svg>
