<svg xmlns="http://www.w3.org/2000/svg" width="1000" height="1000" viewBox="0 0 1000 1000"><path fill-rule="evenodd" clip-rule="evenodd" fill="#050505" d="M890.449 890.904c-34.211 34.109-89.529 34.109-123.672 0l-106.43-106.359c-57.904 35.867-126.018 56.939-199.199 56.939-209.203 0-378.813-169.645-378.813-378.951 0-209.219 169.609-378.846 378.813-378.846 209.34 0 378.949 169.627 378.949 378.846 0 72.701-20.83 140.4-56.283 198.063l106.635 106.67c34.143 34.144 34.143 89.496 0 123.638zm-429.301-644.004c-119.086 0-215.617 96.531-215.617 215.633 0 119.189 96.531 215.721 215.617 215.721 119.119 0 215.754-96.531 215.754-215.721 0-119.101-96.634-215.633-215.754-215.633z"/></svg>