<?xml version="1.0" encoding="utf-8"?>
<!-- Generator: Adobe Illustrator 16.0.0, SVG Export Plug-In . SVG Version: 6.00 Build 0)  -->
<!DOCTYPE svg PUBLIC "-//W3C//DTD SVG 1.1//EN" "http://www.w3.org/Graphics/SVG/1.1/DTD/svg11.dtd">
<svg version="1.1" id="Layer_1" xmlns="http://www.w3.org/2000/svg" xmlns:xlink="http://www.w3.org/1999/xlink" x="0px" y="0px"
	 width="1000px" height="1000px" viewBox="0 0 1000 1000" enable-background="new 0 0 1000 1000" xml:space="preserve">
<path fill-rule="evenodd" clip-rule="evenodd" fill="#050505" d="M896.462,565.313l-55.426,9.262
	c-9.028,41.148-25.354,79.586-47.444,113.926l31.949,46.654c8.388,8.451,8.388,22.11,0,30.477l-60.975,60.975
	c-8.431,8.431-22.047,8.431-30.477,0l-46.015-32.888c-34.254,21.961-72.542,38.139-113.604,47.06l-9.306,55.81
	c0,11.866-9.604,21.514-21.513,21.514h-86.201c-11.909,0-21.577-9.647-21.577-21.514l-10.479-55.874
	c-41.063-8.921-79.394-25.141-113.604-47.081l-46.164,32.974c-8.43,8.431-22.046,8.431-30.477,0l-60.911-60.975
	c-8.43-8.366-8.43-22.025,0-30.477l32.1-46.953c-22.004-34.233-38.182-72.563-47.188-113.584l-55.831-9.305
	c-11.909,0-21.556-9.668-21.556-21.556v-86.17c0-11.909,9.646-21.566,21.556-21.566l55.575-10.383
	c8.921-41.223,25.099-79.639,47.103-114.043l-32.739-45.821c-8.388-8.431-8.388-22.047,0-30.478l60.975-60.975
	c8.409-8.377,22.047-8.377,30.478,0l46.355,31.758c34.446-22.25,73.075-38.608,114.479-47.583l10.33-55.085
	c0-11.908,9.668-21.513,21.577-21.513h86.201c11.909,0,21.513,9.604,21.513,21.513l9.156,55.031
	c41.426,8.975,80.076,25.291,114.544,47.497l46.206-31.618c8.388-8.377,22.047-8.377,30.477,0l60.933,60.975
	c8.409,8.431,8.409,22.047,0,30.478l-32.547,45.522c22.089,34.457,38.373,73.076,47.337,114.384l55.191,10.341
	c11.909,0,21.556,9.657,21.556,21.566v86.17C918.018,555.646,908.371,565.313,896.462,565.313L896.462,565.313z M499.837,235.884
	c-145.747,0-263.94,118.247-263.94,264.101c0,145.896,118.193,264.09,263.94,264.09c145.746,0,263.961-118.194,263.961-264.09
	C763.798,354.131,645.583,235.884,499.837,235.884L499.837,235.884z M500.52,632.008c-72.862,0-131.98-59.097-131.98-132.023
	c0-72.873,59.118-132.034,131.98-132.034c72.927,0,132.023,59.161,132.023,132.034C632.543,572.911,573.446,632.008,500.52,632.008
	L500.52,632.008z M500.52,446.949c-29.303,0-53.078,23.774-53.078,53.035c0,29.303,23.775,53.078,53.078,53.078
	s53.035-23.775,53.035-53.078C553.555,470.724,529.822,446.949,500.52,446.949L500.52,446.949z"/>
</svg>
