<svg xmlns="http://www.w3.org/2000/svg" width="1000" height="1000" viewBox="0 0 1000 1000"><path fill-rule="evenodd" clip-rule="evenodd" fill="#050505" d="M896.462 565.313l-55.426 9.262c-9.028 41.148-25.354 79.586-47.444 113.926l31.949 46.654c8.388 8.451 8.388 22.11 0 30.477l-60.975 60.975c-8.431 8.431-22.047 8.431-30.477 0l-46.015-32.888c-34.254 21.961-72.542 38.139-113.604 47.06l-9.306 55.81c0 11.866-9.604 21.514-21.513 21.514h-86.201c-11.909 0-21.577-9.647-21.577-21.514l-10.479-55.874c-41.063-8.921-79.394-25.141-113.604-47.081l-46.164 32.974c-8.43 8.431-22.046 8.431-30.477 0l-60.911-60.975c-8.43-8.366-8.43-22.025 0-30.477l32.1-46.953c-22.004-34.233-38.182-72.563-47.188-113.584l-55.831-9.305c-11.909 0-21.556-9.668-21.556-21.556v-86.17c0-11.909 9.646-21.566 21.556-21.566l55.575-10.383c8.921-41.223 25.099-79.639 47.103-114.043l-32.739-45.821c-8.388-8.431-8.388-22.047 0-30.478l60.975-60.975c8.409-8.377 22.047-8.377 30.478 0l46.355 31.758c34.446-22.25 73.075-38.608 114.479-47.583l10.33-55.085c0-11.908 9.668-21.513 21.577-21.513h86.201c11.909 0 21.513 9.604 21.513 21.513l9.156 55.031c41.426 8.975 80.076 25.291 114.544 47.497l46.206-31.618c8.388-8.377 22.047-8.377 30.477 0l60.933 60.975c8.409 8.431 8.409 22.047 0 30.478l-32.547 45.522c22.089 34.457 38.373 73.076 47.337 114.384l55.191 10.341c11.909 0 21.556 9.657 21.556 21.566v86.17c-.001 11.888-9.648 21.555-21.557 21.555zm-396.625-329.429c-145.747 0-263.94 118.247-263.94 264.101 0 145.896 118.193 264.09 263.94 264.09 145.746 0 263.961-118.194 263.961-264.09 0-145.854-118.215-264.101-263.961-264.101zm.683 396.124c-72.862 0-131.98-59.097-131.98-132.023 0-72.873 59.118-132.034 131.98-132.034 72.927 0 132.023 59.161 132.023 132.034 0 72.926-59.097 132.023-132.023 132.023zm0-185.059c-29.303 0-53.078 23.774-53.078 53.035 0 29.303 23.775 53.078 53.078 53.078s53.035-23.775 53.035-53.078c0-29.26-23.733-53.035-53.035-53.035z"/></svg>