<svg xmlns="http://www.w3.org/2000/svg" width="1000" height="1000" viewBox="0 0 1000 1000"><path fill-rule="evenodd" clip-rule="evenodd" fill="#050505" d="M735.253 416.822c-48.716 0-91.6-23.315-119.494-58.991l-206.65 99.789c4.019 13.675 6.859 27.818 6.859 42.748 0 14.854-2.841 28.921-6.8 42.521l206.803 99.79c27.894-35.51 70.656-58.75 119.282-58.75 84.045 0 152.192 68.118 152.192 152.193 0 84.014-68.147 152.162-152.192 152.162-84.015 0-152.163-68.148-152.163-152.162 0-11.333 1.451-22.243 3.809-32.851l-210.339-101.511c-27.833 30.946-67.785 50.771-112.754 50.771-84.045 0-152.193-68.118-152.193-152.162 0-84.045 68.148-152.193 152.193-152.193 44.817 0 84.709 19.72 112.543 50.605l210.398-101.604c-2.267-10.472-3.657-21.381-3.657-32.548 0-84.029 68.148-152.178 152.163-152.178 84.045 0 152.192 68.148 152.192 152.178 0 84.045-68.147 152.193-152.192 152.193zm.362 404.282c46.782 0 84.649-37.897 84.649-84.649 0-46.782-37.867-84.648-84.649-84.648s-84.679 37.866-84.679 84.648c.001 46.751 37.897 84.649 84.679 84.649zm-471.477-405.052c-46.752 0-84.648 37.896-84.648 84.664 0 46.767 37.896 84.664 84.648 84.664 46.782 0 84.68-37.897 84.68-84.664-.001-46.768-37.898-84.664-84.68-84.664zm471.477-235.739c-46.782 0-84.679 37.897-84.679 84.664 0 46.782 37.896 84.664 84.679 84.664s84.649-37.882 84.649-84.664c.001-46.767-37.867-84.664-84.649-84.664z"/></svg>