<svg xmlns="http://www.w3.org/2000/svg" width="1000" height="1000" viewBox="0 0 1000 1000"><path fill-rule="evenodd" clip-rule="evenodd" fill="#050505" d="M499.847 911.218c-227.094 0-411.215-184.121-411.215-411.215 0-227.095 184.121-411.215 411.215-411.215 227.134 0 411.215 184.12 411.215 411.215 0 227.094-184.082 411.215-411.215 411.215zm0-755.746c-190.293 0-344.55 154.237-344.55 344.531 0 190.293 154.257 344.59 344.55 344.59 190.294 0 344.59-154.297 344.59-344.59 0-190.294-154.296-344.531-344.59-344.531zm242.34 260.426l-294.367 294.386c-13.521 13.521-35.487 13.521-49.028 0l-122.669-122.669c-13.54-13.561-13.54-35.508 0-49.048 13.561-13.541 35.547-13.541 49.107 0l98.076 98.135 269.852-269.852c13.54-13.521 35.507-13.521 49.028 0 13.56 13.56 13.56 35.507.001 49.048z"/></svg>