<?xml version="1.0" encoding="utf-8"?>
<!-- Generator: Adobe Illustrator 16.0.0, SVG Export Plug-In . SVG Version: 6.00 Build 0)  -->
<!DOCTYPE svg PUBLIC "-//W3C//DTD SVG 1.1//EN" "http://www.w3.org/Graphics/SVG/1.1/DTD/svg11.dtd">
<svg version="1.1" id="Layer_1" xmlns="http://www.w3.org/2000/svg" xmlns:xlink="http://www.w3.org/1999/xlink" x="0px" y="0px"
	 width="1000px" height="1000px" viewBox="0 0 1000 1000" enable-background="new 0 0 1000 1000" xml:space="preserve">
<path fill-rule="evenodd" clip-rule="evenodd" fill="#050505" d="M499.847,911.218c-227.094,0-411.215-184.121-411.215-411.215
	c0-227.095,184.121-411.215,411.215-411.215c227.134,0,411.215,184.12,411.215,411.215
	C911.062,727.097,726.98,911.218,499.847,911.218L499.847,911.218z M499.847,155.472c-190.293,0-344.55,154.237-344.55,344.531
	c0,190.293,154.257,344.59,344.55,344.59c190.294,0,344.59-154.297,344.59-344.59C844.437,309.709,690.141,155.472,499.847,155.472
	L499.847,155.472z M742.187,415.898L447.82,710.284c-13.521,13.521-35.487,13.521-49.028,0L276.123,587.615
	c-13.54-13.561-13.54-35.508,0-49.048c13.561-13.541,35.547-13.541,49.107,0l98.076,98.135l269.852-269.852
	c13.54-13.521,35.507-13.521,49.028,0C755.746,380.41,755.746,402.357,742.187,415.898L742.187,415.898z"/>
</svg>
