<svg xmlns="http://www.w3.org/2000/svg" width="1000" height="1000" viewBox="0 0 1000 1000"><path fill-rule="evenodd" clip-rule="evenodd" fill="#050505" d="M499.845 817.961c-23.438 0-46.244-2.609-68.504-6.712l-1.073.105c-25.983 0-47.022-21.081-47.022-47.065 0-25.941 21.039-47.001 47.022-47.001 5.154 0 10.099 1.052 14.748 2.608 17.758 3.388 36.02 5.365 54.829 5.365 157.879 0 285.797-127.982 285.797-285.818 0-157.837-127.918-285.756-285.797-285.756-157.837 0-285.756 127.919-285.756 285.756 0 35.703 6.943 69.766 18.872 101.22 4.607 7.237 7.343 15.801 7.343 25.016 0 26.005-21.061 47.002-47.002 47.002-15.695 0-29.518-7.722-38.081-19.504l-.862.484c-.778-1.746-1.305-3.577-2.083-5.365-2.167-3.955-3.955-8.205-4.965-12.75-16.369-42.289-26.005-87.986-26.005-136.061 0-209.025 169.492-378.455 378.539-378.455 209.046 0 378.454 169.43 378.454 378.455 0 209.046-169.408 378.476-378.454 378.476zm-96.003-335.282c-5.743-13.044-9.067-27.33-9.067-42.499 0-58.321 47.233-105.575 105.533-105.575 58.32 0 105.575 47.254 105.575 105.575 0 58.3-47.255 105.554-105.575 105.554-19.651 0-37.871-5.744-53.65-15.127-11.803 10.436-81.843 74.542-113.317 156.637-40.27 105.112-37.829 182.663-36.356 204.629 2.44 36.629-20.682 54.639-58.657 43.972-45.739-12.897-47.339-134.883-7.68-240.395 39.869-105.997 145.57-191.648 173.194-212.771z"/></svg>