<?xml version="1.0" encoding="utf-8"?>
<!-- Generator: Adobe Illustrator 16.0.0, SVG Export Plug-In . SVG Version: 6.00 Build 0)  -->
<!DOCTYPE svg PUBLIC "-//W3C//DTD SVG 1.1//EN" "http://www.w3.org/Graphics/SVG/1.1/DTD/svg11.dtd">
<svg version="1.1" id="Layer_1" xmlns="http://www.w3.org/2000/svg" xmlns:xlink="http://www.w3.org/1999/xlink" x="0px" y="0px"
	 width="1000px" height="1000px" viewBox="0 0 1000 1000" enable-background="new 0 0 1000 1000" xml:space="preserve">
<path fill-rule="evenodd" clip-rule="evenodd" fill="#050505" d="M499.845,817.961c-23.438,0-46.244-2.609-68.504-6.712
	c-0.337,0-0.736,0.105-1.073,0.105c-25.983,0-47.022-21.081-47.022-47.065c0-25.941,21.039-47.001,47.022-47.001
	c5.154,0,10.099,1.052,14.748,2.608c17.758,3.388,36.02,5.365,54.829,5.365c157.879,0,285.797-127.982,285.797-285.818
	c0-157.837-127.918-285.756-285.797-285.756c-157.837,0-285.756,127.919-285.756,285.756c0,35.703,6.943,69.766,18.872,101.22
	c4.607,7.237,7.343,15.801,7.343,25.016c0,26.005-21.061,47.002-47.002,47.002c-15.695,0-29.518-7.722-38.081-19.504l-0.862,0.484
	c-0.778-1.746-1.305-3.577-2.083-5.365c-2.167-3.955-3.955-8.205-4.965-12.75c-16.369-42.289-26.005-87.986-26.005-136.061
	c0-209.025,169.492-378.455,378.539-378.455c209.046,0,378.454,169.43,378.454,378.455
	C878.299,648.531,708.891,817.961,499.845,817.961L499.845,817.961z M403.842,482.679c-5.743-13.044-9.067-27.33-9.067-42.499
	c0-58.321,47.233-105.575,105.533-105.575c58.32,0,105.575,47.254,105.575,105.575c0,58.3-47.255,105.554-105.575,105.554
	c-19.651,0-37.871-5.744-53.65-15.127c-11.803,10.436-81.843,74.542-113.317,156.637c-40.27,105.112-37.829,182.663-36.356,204.629
	c2.44,36.629-20.682,54.639-58.657,43.972c-45.739-12.897-47.339-134.883-7.68-240.395
	C270.517,589.453,376.218,503.802,403.842,482.679L403.842,482.679z"/>
</svg>
