<svg xmlns="http://www.w3.org/2000/svg" width="1000" height="1000" viewBox="0 0 1000 1000"><path fill-rule="evenodd" clip-rule="evenodd" fill="#050505" d="M882.161 298.732l-342.761 274.78c.311 3.275-4.326 6.688-27.5 6.843-33.789.272-82.859-.35-131.784-.02-16.34.116-22.192-14.444-22.056-29.492.389-37.201.544-112.823.36-157.402-.02-7.611 7.261-9.171 14.357-8.86l-4.734-5.667 354.592-279.238c41.226-33.06 101.455-26.406 134.486 14.819l39.884 49.78c33.04 41.225 26.411 101.426-14.844 134.457zm-44.909-107.025l-19.928-24.89c-22.212-32.166-39.515-25.356-67.229-7.412l-332.214 260.31-.059-.068.263 101.071 86.563.087.447.515 324.748-262.385c20.784-20.778 39.575-35.067 7.409-67.228zm-319.15-9.536c-.68 0-1.313-.155-1.982-.199h-328.969c-26.42 0-47.835 21.429-47.835 47.835v442.117c0 26.4 21.415 47.826 47.835 47.826h61.59v101.949l130.044-101.949h359.704c26.421 0 47.826-21.426 47.826-47.826v-221.117h.067c.312-16.272 13.551-29.396 29.911-29.396 16.544 0 29.959 13.415 29.959 29.974 0 .695-.155 1.342-.204 2.012v230.113c0 52.822-42.839 95.661-95.671 95.661h-345.793c-52.19 37.658-117.747 85.629-161.917 120.273-7.679 5.998-53.668 49.304-53.668-12.082 0-31.807.029-74.063.029-108.191h-13.774c-52.832 0-95.671-42.839-95.671-95.661v-465.29c0-52.832 42.839-95.666 95.671-95.666h341.76v.423c.379-.02.719-.112 1.088-.112 16.39 0 29.648 13.283 29.648 29.667 0 16.361-13.259 29.639-29.648 29.639z"/></svg>