<?xml version="1.0" encoding="utf-8"?>
<!-- Generator: Adobe Illustrator 16.0.0, SVG Export Plug-In . SVG Version: 6.00 Build 0)  -->
<!DOCTYPE svg PUBLIC "-//W3C//DTD SVG 1.1//EN" "http://www.w3.org/Graphics/SVG/1.1/DTD/svg11.dtd">
<svg version="1.1" id="Layer_1" xmlns="http://www.w3.org/2000/svg" xmlns:xlink="http://www.w3.org/1999/xlink" x="0px" y="0px"
	 width="1000px" height="1000px" viewBox="0 0 1000 1000" enable-background="new 0 0 1000 1000" xml:space="preserve">
<path fill-rule="evenodd" clip-rule="evenodd" fill="#050505" d="M882.161,298.732L539.4,573.512
	c0.311,3.275-4.326,6.688-27.5,6.843c-33.789,0.272-82.859-0.35-131.784-0.02c-16.34,0.116-22.192-14.444-22.056-29.492
	c0.389-37.201,0.544-112.823,0.36-157.402c-0.02-7.611,7.261-9.171,14.357-8.86l-4.734-5.667L722.635,99.676
	c41.226-33.06,101.455-26.406,134.486,14.819l39.884,49.78C930.045,205.5,923.416,265.701,882.161,298.732L882.161,298.732z
	 M837.252,191.707l-19.928-24.89c-22.212-32.166-39.515-25.356-67.229-7.412l-332.214,260.31l-0.059-0.068l0.263,101.071
	l86.563,0.087l0.447,0.515l324.748-262.385C850.627,238.157,869.418,223.868,837.252,191.707L837.252,191.707z M518.102,182.171
	c-0.68,0-1.313-0.155-1.982-0.199H187.151c-26.42,0-47.835,21.429-47.835,47.835v442.117c0,26.4,21.415,47.826,47.835,47.826h61.59
	v101.949L378.785,719.75h359.704c26.421,0,47.826-21.426,47.826-47.826V450.807h0.067c0.312-16.272,13.551-29.396,29.911-29.396
	c16.544,0,29.959,13.415,29.959,29.974c0,0.695-0.155,1.342-0.204,2.012v230.113c0,52.822-42.839,95.661-95.671,95.661H404.584
	c-52.19,37.658-117.747,85.629-161.917,120.273c-7.679,5.998-53.668,49.304-53.668-12.082c0-31.807,0.029-74.063,0.029-108.191
	h-13.774c-52.832,0-95.671-42.839-95.671-95.661V218.22c0-52.832,42.839-95.666,95.671-95.666h341.76v0.423
	c0.379-0.02,0.719-0.112,1.088-0.112c16.39,0,29.648,13.283,29.648,29.667C547.75,168.893,534.491,182.171,518.102,182.171
	L518.102,182.171z"/>
</svg>
